PathFileType	4	(X/Y/Z)	Patient4_TMGait_0pt2_01_right_21.trc.trc
DataRate	CameraRate	NumFrames	NumMarkers	Units	OrigDataRate	OrigDataStartFrame	OrigNumFrames
43.750000000000	43.750000000000	5	33	mm	43.750000000000	89	       141
Frame#	Time	Sacral			L.Shoulder			Chest			R.Shoulder			Neck			R.ASIS			L.ASIS			R.Thigh.Superior			R.Thigh.Lateral			R.Thigh.Inferior			R.Patella			L.Thigh.Superior			L.Thigh.Lateral			L.Thigh.Inferior			L.Patella			L.Shank.Superior			L.Shank.Lateral			L.Shank.Inferior			R.Shank.Superior			R.Shank.Lateral			R.Shank.Inferior			R.Heel			R.Midfoot.Superior			R.Midfoot.Lateral			R.Toe			L.Heel			L.Midfoot.Lateral			L.Midfoot.Superior			L.Toe			L.Elbow			L.Wrist			R.Elbow			R.Wrist			
		X1	Y1	Z1	X2	Y2	Z2	X3	Y3	Z3	X4	Y4	Z4	X5	Y5	Z5	X6	Y6	Z6	X7	Y7	Z7	X8	Y8	Z8	X9	Y9	Z9	X10	Y10	Z10	X11	Y11	Z11	X12	Y12	Z12	X13	Y13	Z13	X14	Y14	Z14	X15	Y15	Z15	X16	Y16	Z16	X17	Y17	Z17	X18	Y18	Z18	X19	Y19	Z19	X20	Y20	Z20	X21	Y21	Z21	X22	Y22	Z22	X23	Y23	Z23	X24	Y24	Z24	X25	Y25	Z25	X26	Y26	Z26	X27	Y27	Z27	X28	Y28	Z28	X29	Y29	Z29	X30	Y30	Z30	X31	Y31	Z31	X32	Y32	Z32	X33	Y33	Z33	

89	49.151428571429	740.737197765580	1002.890252868505	510.597222293185	880.401286152772	1427.518139371076	308.541794434516	1007.902955917712	1361.967696467816	453.385370564442	949.909048516201	1436.445529344635	635.270576076932	883.953266486750	1491.357857296175	464.659920597212	977.889105014023	933.345527315359	608.047786880490	942.171284385164	957.799322097257	336.055924044911	968.442752249020	718.944442286505	583.826840996701	864.096176574175	626.553071131382	649.935671315172	921.965830393845	558.064150810756	570.463731026275	898.505783249724	467.859869418556	578.647456676967	1015.963413310361	762.881773533567	377.582429053398	955.387696151723	632.595743167293	306.922026458285	1049.337635452985	569.625934437118	373.638602723163	1060.498745552703	496.558850020253	378.343323614355	1034.159228403826	422.115464981553	367.190583958331	950.211048671033	308.309815241962	306.982805033612	999.021745094864	194.512956769689	374.264127506425	844.923033374418	390.598468989923	588.715292075828	748.580181889042	313.073688979572	657.049107347381	758.859987457774	208.467305819360	595.912270085238	583.619813752301	69.839900233061	577.132693460034	762.711789303779	100.765466880574	607.066782126501	668.623760660096	50.215988023194	647.280410908507	874.972048175097	36.979637528602	630.054276205012	869.665606739842	38.695241374625	400.567858605800	949.202440836973	36.611595951287	325.441255632735	1030.763180447698	97.233627090972	358.543451747878	1160.296942126527	45.124914066859	337.888823346985	780.426826847136	1091.872831148522	199.805063136912	793.565045806530	830.971746038635	226.655301766992	1160.905904230654	1175.208239016724	740.272775680446	1410.397721297268	1213.577299098456	680.645837410995	
90	49.174285714286	741.651894477833	1003.326920331330	503.558035657818	883.024117649134	1428.170073197607	303.113176565787	1008.889602557814	1362.753141517448	449.349194877781	948.919391289766	1437.217093112559	630.669401644972	884.755667173314	1492.026635546566	459.437734737005	977.861916711771	934.054954874667	603.151756213404	944.526993763040	958.208287644148	330.830993388951	969.806984931176	719.667093269904	580.235754539497	865.756849426764	627.172176447201	646.476830275312	925.046980989567	558.167932705332	568.163733811035	902.085522885992	466.759171076029	577.672868290422	1016.961744031592	762.323078673870	372.477611811328	955.211418443697	632.116788638690	303.024048693373	1048.755602120995	568.895258974504	369.945752724934	1059.372327056718	495.785658514078	375.249142847341	1032.461129464396	421.269874066901	364.720299991707	947.665391021149	307.702146990776	305.335515026456	995.455526503072	194.038814117806	373.407853327009	846.566051370393	390.600760862818	587.583497190416	748.416925685471	315.317798357865	655.683236348039	757.653890430771	209.859018390890	595.820033249323	580.168607048308	73.895189371740	577.469690266854	759.885779092575	101.174694452262	607.470726785707	664.760192453374	52.202215038218	647.432594964452	870.634785194530	36.843142068088	630.071013301224	865.097877841171	38.657093440928	400.586871943244	944.613098878898	36.556468287144	325.411007445582	1026.228316926309	97.119711195907	358.468191256616	1155.778946917232	44.816631555661	337.850774016129	789.175378736132	1091.156277529447	191.310058166279	807.285004618951	830.310612066530	216.135900287848	1154.008030317693	1170.047866725229	737.702364803432	1406.059735819807	1197.914557362229	682.435839606607	
91	49.197142857143	742.524323678865	1003.749501758136	496.446791669615	885.596919650166	1428.936225899547	297.770287627264	1009.702614577612	1363.659617947484	445.460283753085	947.617708367373	1438.026910002405	626.178318115862	885.369195542319	1492.759040778517	454.311158025716	977.744550370376	934.860116553159	598.163292951831	946.844255105752	958.739069561195	325.570159464882	971.931798379841	720.578863068094	576.501213348030	868.656057705273	627.635541611800	642.952178834075	929.666270428364	558.325823438975	565.770863292376	907.421152319060	465.477436517062	576.810156979102	1017.791419048934	761.683542681969	367.178984536465	954.681654087670	631.653340036017	299.008561104216	1047.709238801182	568.095247956206	366.154928239637	1057.700412311677	495.038761621780	372.068304477271	1030.319350465556	420.482674384935	362.149631275729	944.808412724819	307.053588408045	303.593143273383	991.723890898234	193.615043032742	372.523777768292	849.712574064565	390.563336577862	586.511137968299	749.543088658290	317.962482400453	654.306156377350	757.400044669767	211.639885151853	595.802293385410	577.302386803986	79.295423621077	577.858006585393	757.501042418917	101.749061887624	607.920308289538	661.181521239731	55.025768505648	647.622039296216	866.154426974536	36.624820655346	630.104639127666	860.511504481505	38.621893900396	400.593648457382	940.006648513079	36.490131549491	325.369217970155	1021.684209831035	96.991155141622	358.370107649388	1151.244483675114	44.496400569937	337.810289378529	798.823224603760	1090.356289099356	183.109704060435	822.276607307055	829.705663099643	205.955954360540	1145.484607897725	1163.991069368456	735.218811942181	1399.663219243614	1179.474730614048	684.655431933211	
92	49.220000000000	743.305879417009	1004.084550015585	489.281142495156	888.078620740651	1429.772285762383	292.572324843434	1010.306796391954	1364.614462453837	441.758536983566	945.971529923049	1438.758159799558	621.847739975034	885.759221568917	1493.484922362430	449.345589462276	977.520648578230	935.698904327764	593.091360911410	949.099510271197	959.345658162826	320.293175697137	974.916099825607	721.679120321508	572.593541271231	872.973864540728	627.912574432757	639.338820727629	935.997620082738	558.562220786553	563.212318808100	914.707551506063	464.063171243375	575.956323607463	1018.511924333608	760.981210534874	361.785507030655	953.967211703928	631.186318910935	294.927085016075	1046.369951088449	567.241626007113	362.360436942981	1055.687466697867	494.301844425922	368.885135864731	1027.905060800849	419.727432077306	359.546997092346	941.783763985630	306.374737706575	301.790312184138	987.894503032741	193.228365176569	371.652373862467	854.589246274933	390.510104392103	585.429483286828	752.206122246462	321.093616757549	652.880172194679	758.269463890626	213.925385995182	595.813634543106	575.234964956449	86.374732458839	578.251885997717	755.651829776565	102.624804972492	608.406956890211	658.003466263903	58.980021226567	647.826122531693	861.475832705785	36.289399276528	630.166059669642	855.918126175722	38.591837905949	400.587267176134	935.394192179587	36.420997443732	325.318323342094	1017.138874102255	96.859809165838	358.259757537543	1146.702210279020	44.180042120574	337.768758005003	809.380104792174	1089.498899306882	175.229022760358	838.642131797127	829.231706799277	196.208893752275	1135.246581934928	1157.039869404485	732.723194025853	1390.823595068270	1158.199672783515	687.182070398857	
93	49.242857142857	743.940831028529	1004.238021498146	482.087644865093	890.428114042881	1430.604471398536	287.578197355123	1010.668800721943	1365.515108762331	438.282509320626	943.955677866183	1439.269620306871	617.728441930980	885.900987035527	1494.111585002143	444.603944269031	977.171667866031	936.489933442995	587.964380973778	951.263406040234	959.952993758777	315.030048003456	978.820664745054	722.967063464112	568.485915497885	878.842315080082	627.988060822760	635.602327694082	944.143734048910	558.919686316534	560.397206945832	924.072488497750	462.592289330221	574.963796972533	1019.192853973886	760.224284919664	356.408136243865	953.253186635289	630.678353531994	290.846534003264	1044.940587276012	566.342224364098	358.663463318954	1053.574458750015	493.547158378869	365.791152102006	1025.418259982431	418.960781020243	356.990791057281	938.748956391072	305.669555123761	299.974291058355	984.045226819172	192.854899241968	370.834666686590	861.367570994290	390.478031613419	584.233066611756	756.618926708533	324.784831082174	651.339683712830	760.411997431106	216.826423453470	595.775633322526	574.195998590339	95.418361796160	578.571449627660	754.435631998915	103.961976990149	608.898035225908	655.364604313586	64.353294832441	647.996968507452	856.570792800658	35.809493300441	630.264070662367	851.327231339360	38.567452446011	400.568721399221	930.784616122120	36.355049600662	325.261492513108	1012.598352497621	96.734919387906	358.149061756261	1142.158741588565	43.881091864776	337.728266410860	820.814497418968	1088.607071954243	167.678615832217	856.466367817444	828.975979129256	186.975899346744	1123.247680781415	1149.219208155161	730.112900637717	1379.158966948343	1134.137665123886	689.885805282270	
